# xmcd
# Track frame offsets:
# 150
# 22138
# 38198
# 55014
# 65704
# 82845
# 103811
# 127071
# 145423
# 167100
# 181498
# 198330
# 215567
#
# Disc length: 3160 seconds
# Revision: 0
# Processed by: cddbd v1.5.1PL0 Copyright (c) Steve Scherf et al.
# Submitted via: VisiTrax 2.9.9.202 - For more info visit www.synapsa.com
#
DISCID=c40c560d
DTITLE=Carolyn Dawn Johnson - Room With A View
DYEAR=2004
DGENRE=Country
TTITLE0=Georgia
TTITLE1=Just another girl
TTITLE2=I'll think of you that way
TTITLE3=Love is always worth the ache
TTITLE4=Complicated
TTITLE5=I don't want you to go
TTITLE6=You are
TTITLE7=Masterpiece
TTITLE8=Little bit of this, little bit of that
TTITLE9=One day closer to you
TTITLE10=Room with a view
TTITLE11=Tumble and roll
TTITLE12=Not enough to stay
EXTD=
EXTT0=
EXTT1=
EXTT2=
EXTT3=
EXTT4=
EXTT5=
EXTT6=
EXTT7=
EXTT8=
EXTT9=
EXTT10=
EXTT11=
EXTT12=
PLAYORDER=
